HIERARCHY
ROOT Hips
{
	OFFSET 0.053599 88.859886 3.107447
	CHANNELS 6 Xposition Yposition Zposition Zrotation Yrotation Xrotation 
	JOINT Spine
	{
		OFFSET -0.000000 8.814246 -2.080107
		CHANNELS 3 Zrotation Yrotation Xrotation
		JOINT Spine1
		{
			OFFSET 0.000000 8.844141 0.000000
			CHANNELS 3 Zrotation Yrotation Xrotation
			JOINT Spine2
			{
				OFFSET -0.000000 11.682268 0.000000
				CHANNELS 3 Zrotation Yrotation Xrotation
				JOINT Spine3
				{
					OFFSET 0.000000 11.746700 0.000000
					CHANNELS 3 Zrotation Yrotation Xrotation
					JOINT Neck
					{
						OFFSET -0.000000 17.658264 -0.000000
						CHANNELS 3 Zrotation Yrotation Xrotation
						JOINT Neck1
						{
							OFFSET -0.000000 5.101515 -0.000000
							CHANNELS 3 Zrotation Yrotation Xrotation
							JOINT Head
							{
								OFFSET 0.000000 5.101515 0.000000
								CHANNELS 3 Zrotation Yrotation Xrotation
								JOINT HeadEnd
								{
									OFFSET 0.000000 11.655085 0.000000
									CHANNELS 3 Zrotation Yrotation Xrotation
									End Site
									{
										OFFSET 0.000000 0.000000 0.000000
									}
								}
							}
						}
					}
					JOINT RightShoulder
					{
						OFFSET -2.625389 11.175210 0.000000
						CHANNELS 3 Zrotation Yrotation Xrotation
						JOINT RightArm
						{
							OFFSET -0.000000 10.434715 -0.000000
							CHANNELS 3 Zrotation Yrotation Xrotation
							JOINT RightForeArm
							{
								OFFSET -0.000000 29.628420 0.000000
								CHANNELS 3 Zrotation Yrotation Xrotation
								JOINT RightHand
								{
									OFFSET -0.000000 22.857611 0.000000
									CHANNELS 3 Zrotation Yrotation Xrotation
									JOINT RightHandThumb1
									{
										OFFSET -2.867323 3.959563 2.944291
										CHANNELS 3 Zrotation Yrotation Xrotation
										JOINT RightHandThumb2
										{
											OFFSET 0.000000 3.350399 0.000000
											CHANNELS 3 Zrotation Yrotation Xrotation
											JOINT RightHandThumb3
											{
												OFFSET 0.000000 3.756509 -0.000000
												CHANNELS 3 Zrotation Yrotation Xrotation
												JOINT RightHandThumb4
												{
													OFFSET 0.000000 3.147345 0.000000
													CHANNELS 3 Zrotation Yrotation Xrotation
													End Site
													{
														OFFSET 0.000000 0.000000 0.000000
													}
												}
											}
										}
									}
									JOINT RightHandIndex1
									{
										OFFSET -0.086752 10.030893 2.345280
										CHANNELS 3 Zrotation Yrotation Xrotation
										JOINT RightHandIndex2
										{
											OFFSET -0.000000 4.061090 0.000000
											CHANNELS 3 Zrotation Yrotation Xrotation
											JOINT RightHandIndex3
											{
												OFFSET -0.000000 3.248873 0.000000
												CHANNELS 3 Zrotation Yrotation Xrotation
												JOINT RightHandIndex4
												{
													OFFSET 0.000000 2.639709 -0.000000
													CHANNELS 3 Zrotation Yrotation Xrotation
													End Site
													{
														OFFSET 0.000000 0.000000 0.000000
													}
												}
											}
										}
									}
									JOINT RightHandMiddle1
									{
										OFFSET 0.104102 9.502952 0.006768
										CHANNELS 3 Zrotation Yrotation Xrotation
										JOINT RightHandMiddle2
										{
											OFFSET 0.000000 4.568727 0.000000
											CHANNELS 3 Zrotation Yrotation Xrotation
											JOINT RightHandMiddle3
											{
												OFFSET 0.000000 3.654981 -0.000000
												CHANNELS 3 Zrotation Yrotation Xrotation
												JOINT RightHandMiddle4
												{
													OFFSET -0.000000 2.741236 -0.000000
													CHANNELS 3 Zrotation Yrotation Xrotation
													End Site
													{
														OFFSET 0.000000 0.000000 0.000000
													}
												}
											}
										}
									}
									JOINT RightHandRing1
									{
										OFFSET 0.086752 8.921708 -2.267442
										CHANNELS 3 Zrotation Yrotation Xrotation
										JOINT RightHandRing2
										{
											OFFSET -0.000000 4.061090 0.000000
											CHANNELS 3 Zrotation Yrotation Xrotation
											JOINT RightHandRing3
											{
												OFFSET 0.000000 3.654981 -0.000000
												CHANNELS 3 Zrotation Yrotation Xrotation
												JOINT RightHandRing4
												{
													OFFSET 0.000000 2.741236 -0.000000
													CHANNELS 3 Zrotation Yrotation Xrotation
													End Site
													{
														OFFSET 0.000000 0.000000 0.000000
													}
												}
											}
										}
									}
									JOINT RightHandPinky1
									{
										OFFSET -0.173504 7.976997 -4.467199
										CHANNELS 3 Zrotation Yrotation Xrotation
										JOINT RightHandPinky2
										{
											OFFSET 0.000000 3.350399 -0.000000
											CHANNELS 3 Zrotation Yrotation Xrotation
											JOINT RightHandPinky3
											{
												OFFSET -0.000000 2.842763 0.000000
												CHANNELS 3 Zrotation Yrotation Xrotation
												JOINT RightHandPinky4
												{
													OFFSET -0.000000 2.639709 0.000000
													CHANNELS 3 Zrotation Yrotation Xrotation
													End Site
													{
														OFFSET 0.000000 0.000000 0.000000
													}
												}
											}
										}
									}
									JOINT RightForeArmEnd
									{
										OFFSET 0.000000 0.000000 0.000000
										CHANNELS 3 Zrotation Yrotation Xrotation
										End Site
										{
											OFFSET 0.000000 0.000000 0.000000
										}
									}
								}
								JOINT RightArmEnd
								{
									OFFSET 0.000000 0.000000 0.000000
									CHANNELS 3 Zrotation Yrotation Xrotation
									End Site
									{
										OFFSET 0.000000 0.000000 0.000000
									}
								}
							}
						}
					}
					JOINT LeftShoulder
					{
						OFFSET 2.625389 11.175210 0.000000
						CHANNELS 3 Zrotation Yrotation Xrotation
						JOINT LeftArm
						{
							OFFSET 0.000000 10.813635 -0.000000
							CHANNELS 3 Zrotation Yrotation Xrotation
							JOINT LeftForeArm
							{
								OFFSET 0.000000 28.724781 0.000000
								CHANNELS 3 Zrotation Yrotation Xrotation
								JOINT LeftHand
								{
									OFFSET 0.644384 25.716167 -0.328871
									CHANNELS 3 Zrotation Yrotation Xrotation
									JOINT LeftHandThumb1
									{
										OFFSET 2.867323 3.959563 2.944291
										CHANNELS 3 Zrotation Yrotation Xrotation
										JOINT LeftHandThumb2
										{
											OFFSET 0.000000 3.350399 0.000000
											CHANNELS 3 Zrotation Yrotation Xrotation
											JOINT LeftHandThumb3
											{
												OFFSET -0.000000 3.756509 0.000000
												CHANNELS 3 Zrotation Yrotation Xrotation
												JOINT LeftHandThumb4
												{
													OFFSET -0.000000 3.100000 0.000000
													CHANNELS 3 Zrotation Yrotation Xrotation
													End Site
													{
														OFFSET 0.000000 0.000000 0.000000
													}
												}
											}
										}
									}
									JOINT LeftHandIndex1
									{
										OFFSET 0.086752 10.030893 2.345280
										CHANNELS 3 Zrotation Yrotation Xrotation
										JOINT LeftHandIndex2
										{
											OFFSET -0.000000 4.061090 -0.000000
											CHANNELS 3 Zrotation Yrotation Xrotation
											JOINT LeftHandIndex3
											{
												OFFSET 0.000000 3.248873 -0.000000
												CHANNELS 3 Zrotation Yrotation Xrotation
												JOINT LeftHandIndex4
												{
													OFFSET 0.000000 2.639709 -0.000000
													CHANNELS 3 Zrotation Yrotation Xrotation
													End Site
													{
														OFFSET 0.000000 0.000000 0.000000
													}
												}
											}
										}
									}
									JOINT LeftHandMiddle1
									{
										OFFSET -0.104102 9.502952 0.006768
										CHANNELS 3 Zrotation Yrotation Xrotation
										JOINT LeftHandMiddle2
										{
											OFFSET -0.000000 4.568727 -0.000000
											CHANNELS 3 Zrotation Yrotation Xrotation
											JOINT LeftHandMiddle3
											{
												OFFSET 0.000000 3.654981 0.000000
												CHANNELS 3 Zrotation Yrotation Xrotation
												JOINT LeftHandMiddle4
												{
													OFFSET 0.000000 2.741236 -0.000000
													CHANNELS 3 Zrotation Yrotation Xrotation
													End Site
													{
														OFFSET 0.000000 0.000000 0.000000
													}
												}
											}
										}
									}
									JOINT LeftHandRing1
									{
										OFFSET -0.086752 8.921708 -2.267442
										CHANNELS 3 Zrotation Yrotation Xrotation
										JOINT LeftHandRing2
										{
											OFFSET 0.000000 4.061090 0.000000
											CHANNELS 3 Zrotation Yrotation Xrotation
											JOINT LeftHandRing3
											{
												OFFSET 0.000000 3.654981 0.000000
												CHANNELS 3 Zrotation Yrotation Xrotation
												JOINT LeftHandRing4
												{
													OFFSET 0.000000 2.741236 0.000000
													CHANNELS 3 Zrotation Yrotation Xrotation
													End Site
													{
														OFFSET 0.000000 0.000000 0.000000
													}
												}
											}
										}
									}
									JOINT LeftHandPinky1
									{
										OFFSET 0.173504 7.976997 -4.467199
										CHANNELS 3 Zrotation Yrotation Xrotation
										JOINT LeftHandPinky2
										{
											OFFSET -0.000000 3.350399 -0.000000
											CHANNELS 3 Zrotation Yrotation Xrotation
											JOINT LeftHandPinky3
											{
												OFFSET 0.000000 2.842763 0.000000
												CHANNELS 3 Zrotation Yrotation Xrotation
												JOINT LeftHandPinky4
												{
													OFFSET -0.000000 2.639709 -0.000000
													CHANNELS 3 Zrotation Yrotation Xrotation
													End Site
													{
														OFFSET 0.000000 0.000000 0.000000
													}
												}
											}
										}
									}
									JOINT LeftForeArmEnd
									{
										OFFSET 0.000000 0.000000 0.000000
										CHANNELS 3 Zrotation Yrotation Xrotation
										End Site
										{
											OFFSET 0.000000 0.000000 0.000000
										}
									}
								}
								JOINT LeftArmEnd
								{
									OFFSET 0.000000 0.000000 0.000000
									CHANNELS 3 Zrotation Yrotation Xrotation
									End Site
									{
										OFFSET 0.000000 0.000000 0.000000
									}
								}
							}
						}
					}
				}
			}
		}
	}
	JOINT RightUpLeg
	{
		OFFSET -11.289943 0.000000 0.000000
		CHANNELS 3 Zrotation Yrotation Xrotation
		JOINT RightLeg
		{
			OFFSET 0.000000 -38.200325 0.000000
			CHANNELS 3 Zrotation Yrotation Xrotation
			JOINT RightFoot
			{
				OFFSET -0.000000 -39.900856 -0.000000
				CHANNELS 3 Zrotation Yrotation Xrotation
				JOINT RightToeBase
				{
					OFFSET 0.000000 0.000000 15.261641
					CHANNELS 3 Zrotation Yrotation Xrotation
					JOINT RightToeBaseEnd
					{
						OFFSET 0.000000 0.000000 7.370709
						CHANNELS 3 Zrotation Yrotation Xrotation
						End Site
						{
							OFFSET 0.000000 0.000000 0.000000
						}
					}
				}
				JOINT RightLegEnd
				{
					OFFSET 0.000000 0.000000 0.000000
					CHANNELS 3 Zrotation Yrotation Xrotation
					End Site
					{
						OFFSET 0.000000 0.000000 0.000000
					}
				}
			}
			JOINT RightUpLegEnd
			{
				OFFSET 0.000000 0.000000 0.000000
				CHANNELS 3 Zrotation Yrotation Xrotation
				End Site
				{
					OFFSET 0.000000 0.000000 0.000000
				}
			}
		}
	}
	JOINT LeftUpLeg
	{
		OFFSET 11.315661 -0.000000 0.000000
		CHANNELS 3 Zrotation Yrotation Xrotation
		JOINT LeftLeg
		{
			OFFSET -0.000000 -38.200325 -0.000000
			CHANNELS 3 Zrotation Yrotation Xrotation
			JOINT LeftFoot
			{
				OFFSET 0.000000 -39.900856 -0.000000
				CHANNELS 3 Zrotation Yrotation Xrotation
				JOINT LeftToeBase
				{
					OFFSET -0.000000 -0.000000 15.261641
					CHANNELS 3 Zrotation Yrotation Xrotation
					JOINT LeftToeBaseEnd
					{
						OFFSET 0.000000 -0.000000 7.539996
						CHANNELS 3 Zrotation Yrotation Xrotation
						End Site
						{
							OFFSET 0.000000 0.000000 0.000000
						}
					}
				}
				JOINT LeftLegEnd
				{
					OFFSET 0.000000 0.000000 0.000000
					CHANNELS 3 Zrotation Yrotation Xrotation
					End Site
					{
						OFFSET 0.000000 0.000000 0.000000
					}
				}
			}
			JOINT LeftUpLegEnd
			{
				OFFSET 0.000000 0.000000 0.000000
				CHANNELS 3 Zrotation Yrotation Xrotation
				End Site
				{
					OFFSET 0.000000 0.000000 0.000000
				}
			}
		}
	}
}
MOTION
Frames: 4
Frame Time: 0.016667
-0.399388 87.333778 1.606500 -0.332295 -0.448570 -10.647612 1.411234 0.165929 7.449065 0.001872 0.185335 2.276248 -0.295581 0.075176 5.692616 -0.691790 0.147720 5.133310 1.164268 0.402170 4.026260 0.165856 1.270280 -3.081984 -0.554366 -0.793265 -20.395876 0.000000 0.000000 0.000000 91.148041 -0.571872 8.373204 64.269417 -15.982597 1.133294 -1.048303 17.883612 64.955879 8.541269 17.120665 -4.875894 9.314499 -1.717207 40.384712 0.000001 0.000019 -22.697374 0.000006 0.000062 -15.619546 0.000012 0.000001 -0.000018 7.865733 0.080964 -2.110084 5.371012 -0.091201 0.298682 5.269249 -0.061197 0.237105 -0.000008 0.000040 -0.000010 7.415978 0.025447 -5.500308 4.944894 -0.047048 0.093855 4.992748 -0.021121 0.087234 -0.000000 0.000025 0.000007 9.779914 -0.035979 -9.891869 5.936805 0.068594 -0.168145 6.039472 0.035627 -0.121505 0.000003 -0.000888 0.000006 11.598481 -0.059171 -15.386722 7.045702 0.185049 -0.297659 7.072539 0.096746 -0.248599 -0.000530 0.000004 -0.000043 0.000000 0.000000 0.000000 0.000000 0.000000 0.000000 -87.444000 0.040199 3.271058 -74.068466 5.175629 -9.148549 0.220432 -17.991451 90.343460 -16.219309 -21.388218 -3.272578 -7.076753 1.351799 41.371990 0.000027 0.000021 -17.551235 -0.000008 -0.000016 -12.230492 0.001242 0.000007 0.000844 2.089922 0.112879 1.115649 -1.272438 -0.081975 -0.356345 -1.442360 -0.067197 -0.301352 -0.000001 -0.000866 -0.000004 0.487053 0.059509 -3.682534 -1.515017 -0.042469 -0.138632 -1.334120 -0.017593 -0.109984 -0.001634 -0.000006 0.000009 -4.834929 -0.018413 -10.902905 -3.246477 0.065574 0.147558 -2.905733 0.018217 0.104514 0.000079 0.000013 0.000009 -7.918038 -0.057347 -18.442047 -5.346454 0.120143 0.463778 -5.533077 0.060120 0.330647 -0.000034 0.000012 -0.000050 0.000000 0.000000 0.000000 0.000000 0.000000 0.000000 -1.719832 -10.178830 15.734913 -0.055946 -0.599778 4.499368 -1.476272 -7.195229 17.719437 -1.009177 0.729807 -18.200853 0.000000 0.000000 0.000000 0.000000 0.000000 0.000000 0.000000 0.000000 0.000000 -0.934380 -2.593949 10.914160 0.057887 0.414842 10.115223 3.980827 -0.287914 15.513440 0.239788 -0.506337 -20.154758 0.000000 0.000000 0.000000 0.000000 0.000000 0.000000 0.000000 0.000000 0.000000 
-0.402949 87.324684 1.604120 -0.356206 -0.451181 -10.642860 1.393598 0.157114 7.433403 -0.008991 0.179410 2.280586 -0.296076 0.002071 5.623705 -0.742600 0.114999 5.153645 1.168792 0.461760 4.078654 0.167993 1.349223 -3.095585 -0.576283 -0.789280 -20.450239 0.000000 0.000000 0.000000 91.046112 -0.553871 8.312746 64.099213 -15.689758 1.172267 -1.058942 17.999964 65.775711 8.189545 16.700640 -4.580526 9.367535 -1.725924 40.359085 0.000002 0.000019 -22.827339 0.000006 0.000062 -15.708556 0.000012 0.000001 -0.000018 8.149407 0.081779 -1.990548 5.455260 -0.100448 0.316447 5.340425 -0.069482 0.252203 -0.000008 0.000039 -0.000010 7.663203 0.025515 -5.398340 5.039391 -0.050581 0.100541 5.086612 -0.023944 0.091746 -0.000001 0.000024 0.000007 10.042774 -0.036639 -9.818878 6.078454 0.074569 -0.174334 6.174644 0.039235 -0.126611 0.000004 -0.000905 0.000006 11.799099 -0.060628 -15.314615 7.213280 0.200693 -0.318358 7.236184 0.109078 -0.267429 -0.000533 0.000004 -0.000044 0.000000 0.000000 0.000000 0.000000 0.000000 0.000000 -87.432159 0.008823 3.284168 -74.138916 5.144631 -9.107511 0.215552 -17.977629 90.303925 -16.684828 -21.992897 -2.802349 -7.260782 1.374895 41.287220 0.000027 0.000021 -18.004654 -0.000008 -0.000016 -12.545819 0.001260 0.000007 0.000844 1.071614 0.112138 0.912202 -1.717353 -0.085480 -0.350618 -1.886428 -0.070581 -0.293612 -0.000000 -0.000862 -0.000004 -0.491503 0.059420 -3.801366 -1.971307 -0.044023 -0.136133 -1.806715 -0.018240 -0.106756 -0.001727 -0.000006 0.000009 -5.868676 -0.019725 -10.887553 -3.809417 0.067144 0.141737 -3.464847 0.019412 0.100657 0.000050 0.000013 0.000009 -8.959617 -0.064266 -18.290096 -5.929941 0.125295 0.444833 -6.117683 0.064111 0.313443 0.000004 0.000012 -0.000050 0.000000 0.000000 0.000000 0.000000 0.000000 0.000000 -1.691793 -10.180160 15.715831 -0.055241 -0.598252 4.490995 -1.502988 -7.202976 17.714005 -1.012853 0.737325 -18.188545 0.000000 0.000000 0.000000 0.000000 0.000000 0.000000 0.000000 0.000000 0.000000 -0.900784 -2.555691 10.915121 0.060044 0.419747 10.128745 3.990746 -0.316995 15.467328 0.237474 -0.500985 -20.120667 0.000000 0.000000 0.000000 0.000000 0.000000 0.000000 0.000000 0.000000 0.000000 
-0.408435 87.318138 1.601680 -0.375234 -0.449447 -10.636677 1.369994 0.148569 7.414404 -0.021714 0.175406 2.283269 -0.295978 -0.065922 5.567454 -0.792537 0.084205 5.172996 1.188290 0.516647 4.140933 0.171275 1.427830 -3.107309 -0.594535 -0.784703 -20.508986 0.000000 0.000000 0.000000 90.947334 -0.540050 8.252923 63.919388 -15.361515 1.184027 -1.060809 18.148586 66.554771 7.881740 16.292332 -4.248480 9.434097 -1.735487 40.327938 0.000002 0.000019 -22.988991 0.000006 0.000061 -15.819467 0.000012 0.000000 -0.000018 8.494380 0.082692 -1.901345 5.576233 -0.110161 0.335886 5.447350 -0.078309 0.268861 -0.000009 0.000039 -0.000010 7.965044 0.025488 -5.314265 5.173190 -0.054295 0.107632 5.219375 -0.026841 0.096519 -0.000001 0.000024 0.000006 10.356070 -0.037275 -9.752683 6.272328 0.080894 -0.180522 6.361399 0.042999 -0.131735 0.000004 -0.000931 0.000005 12.050364 -0.061517 -15.239377 7.436812 0.216777 -0.339336 7.455038 0.121440 -0.286390 -0.000532 0.000004 -0.000045 0.000000 0.000000 0.000000 0.000000 0.000000 0.000000 -87.432426 -0.019258 3.285166 -74.159500 5.041697 -9.013868 0.202021 -18.001451 90.122589 -17.199675 -22.728378 -2.242127 -7.527801 1.408027 41.164062 0.000026 0.000022 -18.662985 -0.000007 -0.000016 -13.000290 0.001275 0.000007 0.000843 -0.385568 0.111059 0.606172 -2.375288 -0.088022 -0.334406 -2.540688 -0.072935 -0.276517 0.000001 -0.000859 -0.000003 -1.878567 0.059311 -3.984951 -2.640372 -0.045262 -0.129603 -2.491451 -0.018554 -0.100208 -0.001812 -0.000006 0.000010 -7.286164 -0.020929 -10.874284 -4.607371 0.068027 0.129920 -4.259256 0.019994 0.092557 0.000024 0.000013 0.000009 -10.341473 -0.071411 -18.074772 -6.731736 0.128560 0.408015 -6.920350 0.066422 0.282813 0.000039 0.000012 -0.000050 0.000000 0.000000 0.000000 0.000000 0.000000 0.000000 -1.670084 -10.188693 15.697142 -0.054620 -0.598119 4.478404 -1.530817 -7.214184 17.711094 -1.015496 0.745259 -18.179636 0.000000 0.000000 0.000000 0.000000 0.000000 0.000000 0.000000 0.000000 0.000000 -0.871522 -2.515714 10.907782 0.062059 0.424901 10.138086 4.002748 -0.353815 15.433458 0.234350 -0.495968 -20.092337 0.000000 0.000000 0.000000 0.000000 0.000000 0.000000 0.000000 0.000000 0.000000 
-0.416351 87.314102 1.598416 -0.387784 -0.445519 -10.628052 1.339398 0.140820 7.394795 -0.037891 0.173037 2.283757 -0.293160 -0.131433 5.525898 -0.840380 0.054701 5.192450 1.222689 0.561450 4.205207 0.175012 1.501137 -3.116008 -0.609296 -0.779961 -20.568766 0.000000 0.000000 0.000000 90.849152 -0.530496 8.192569 63.726295 -14.983148 1.175900 -1.053925 18.318306 67.333244 7.659207 15.931848 -3.865321 9.512703 -1.745630 40.291931 0.000002 0.000019 -23.177610 0.000006 0.000061 -15.948995 0.000013 -0.000000 -0.000018 8.890282 0.083490 -1.844977 5.745258 -0.120390 0.356798 5.602337 -0.087743 0.286942 -0.000009 0.000039 -0.000010 8.311806 0.025307 -5.253430 5.355505 -0.058225 0.115148 5.400502 -0.029851 0.101617 -0.000001 0.000025 0.000006 10.704840 -0.037820 -9.702742 6.519526 0.087657 -0.187103 6.601137 0.047043 -0.137122 0.000004 -0.000968 0.000004 12.340463 -0.061694 -15.175174 7.711278 0.233719 -0.362093 7.724512 0.134248 -0.306384 -0.000523 0.000004 -0.000045 0.000000 0.000000 0.000000 0.000000 0.000000 0.000000 -87.435921 -0.043997 3.275045 -74.137825 4.866838 -8.877697 0.179133 -18.056240 89.801399 -17.727880 -23.581947 -1.636567 -7.875274 1.450186 41.003838 0.000026 0.000022 -19.521381 -0.000006 -0.000015 -13.589750 0.001285 0.000007 0.000843 -2.252696 0.109408 0.192330 -3.286818 -0.089557 -0.306294 -3.446694 -0.074279 -0.249044 0.000001 -0.000856 -0.000002 -3.637727 0.059097 -4.236791 -3.559763 -0.046154 -0.118719 -3.425269 -0.018553 -0.090069 -0.001872 -0.000006 0.000012 -9.035098 -0.021846 -10.869358 -5.658472 0.068279 0.111994 -5.307822 0.019996 0.080108 -0.000012 0.000013 0.000009 -12.003962 -0.078066 -17.803696 -7.753008 0.130058 0.353625 -7.941841 0.067232 0.239240 0.000063 0.000012 -0.000050 0.000000 0.000000 0.000000 0.000000 0.000000 0.000000 -1.656990 -10.202042 15.675236 -0.054304 -0.599715 4.467131 -1.558104 -7.223873 17.712446 -1.016725 0.753992 -18.174887 0.000000 0.000000 0.000000 0.000000 0.000000 0.000000 0.000000 0.000000 0.000000 -0.846894 -2.476485 10.893364 0.063767 0.429770 10.143753 4.015999 -0.395486 15.410254 0.230225 -0.491417 -20.068171 0.000000 0.000000 0.000000 0.000000 0.000000 0.000000 0.000000 0.000000 0.000000 
